<svg xmlns="http://www.w3.org/2000/svg" width="21" height="21" viewBox="0 0 21 21" fill="none">
  <g clip-path="url(#clip0_31341_24897)">
    <path d="M10.5 0C4.70149 0 0 4.70149 0 10.5C0 16.2985 4.70149 21 10.5 21C16.2985 21 21 16.2985 21 10.5C21 4.70149 16.2985 0 10.5 0ZM7.29851 4.29851C8.30597 3.31343 9.64925 2.79851 11.0597 2.79851C12.4701 2.8209 13.791 3.3806 14.7761 4.41045L12.8731 6.26866C12.3806 5.77612 11.7313 5.48507 11.0373 5.48507C10.3433 5.48507 9.67164 5.73134 9.1791 6.22388C8.14925 7.23134 8.12687 8.88806 9.11194 9.91791L11.1269 12L9.22388 13.8582L7.20896 11.7761C5.17164 9.67164 5.21642 6.31343 7.29851 4.29851ZM13.6791 16.7015C12.6493 17.6866 11.3284 18.1791 10.0075 18.1791C8.6194 18.1791 7.25373 17.6418 6.22388 16.5896L8.12687 14.7313C9.13433 15.7612 10.791 15.7836 11.8209 14.7761C12.3134 14.2836 12.6045 13.6343 12.6045 12.9403C12.6045 12.2463 12.3582 11.5746 11.8657 11.0821L9.85075 9L11.7537 7.14179L13.7687 9.22388C14.7537 10.2313 15.2687 11.5746 15.2687 12.9851C15.2687 14.3955 14.709 15.7164 13.6791 16.7015Z" fill="white"/>
  </g>
  <defs>
    <clipPath id="clip0_31341_24897">
      <rect width="21" height="21" fill="white"/>
    </clipPath>
  </defs>
</svg>