<svg width="186" height="75" viewBox="0 0 186 75" fill="none" xmlns="http://www.w3.org/2000/svg">
<path d="M126.924 21.893L136.742 20.1344V57.8248H126.924V21.893ZM141.258 21.893V57.8248H151.081V20.1344L141.258 21.893ZM112.938 57.8248H122.761V30.2594H112.938V57.8248ZM48.0309 34.1564C46.7874 34.0732 43.9154 33.8911 43.9154 31.3C43.9154 28.1782 48.0517 28.1782 49.6074 28.1782C52.339 28.1782 55.8718 28.9847 58.3953 29.7391C58.3953 29.7391 59.8053 30.2334 61.0019 30.7433L61.1112 30.7745V22.226L60.9603 22.1792C57.9842 21.1386 54.519 20.1344 48.0986 20.1344C37.0214 20.1344 33.0984 26.5861 33.0984 32.1117C33.0984 35.2959 34.4616 42.7934 47.1412 43.6571C48.2182 43.7247 51.0695 43.886 51.0695 46.5603C51.0695 48.7664 48.7333 50.0723 44.8051 50.0723C40.5022 50.0723 36.3242 48.9745 33.7852 47.9339V56.7425C37.5834 57.7363 41.8602 58.2358 46.8811 58.2358C57.7085 58.2358 62.5576 52.1327 62.5576 46.0869C62.5576 39.2293 57.1309 34.7756 48.0309 34.1616V34.1564ZM107.407 29.8536C98.3281 30.1449 93.7235 34.2189 93.7235 42.3147V57.8248H103.63V45.1763C103.63 40.3272 104.265 38.2512 110.019 38.0535V29.9992C109.051 29.7911 107.412 29.8588 107.412 29.8588L107.407 29.8536ZM80.7629 30.2282C80.5443 30.7797 78.973 35.2178 75.1697 39.8225V20.1344L65.0343 22.1376V57.8248H75.1697V46.7945C78.1041 51.1962 79.5558 57.8248 79.5558 57.8248H91.6943C90.4924 52.8351 85.2426 43.6258 85.2426 43.6258C89.9565 37.6476 92.0273 31.2792 92.3551 30.223H80.7629V30.2282ZM117.855 27.6163C120.529 27.6163 122.699 25.4518 122.699 22.7775C122.699 20.1032 120.529 17.9335 117.855 17.9335C115.181 17.9335 113.016 20.1032 113.016 22.7775C113.016 25.4518 115.186 27.6163 117.855 27.6163Z" fill="#862165"/>
</svg>
